<?xml version="1.0" standalone="no"?>
<!DOCTYPE svg PUBLIC "-//W3C//DTD SVG 20010904//EN"
 "http://www.w3.org/TR/2001/REC-SVG-20010904/DTD/svg10.dtd">
<svg version="1.0" xmlns="http://www.w3.org/2000/svg"
 width="600.000000pt" height="600.000000pt" viewBox="0 0 600.000000 600.000000"
 preserveAspectRatio="xMidYMid meet">

<g transform="translate(0.000000,600.000000) scale(0.100000,-0.100000)"
fill="#000000" stroke="none">
<path d="M660 5330 c-19 -19 -20 -33 -20 -411 0 -247 4 -397 10 -409 6 -11 20
-25 32 -31 16 -8 615 -11 2312 -10 1260 1 2304 1 2319 1 35 0 77 40 77 75 0
29 -7 31 -34 10 -19 -15 -66 -21 -66 -9 0 3 11 19 25 36 50 59 63 139 68 406
5 275 9 260 -77 301 -40 19 -62 19 -656 11 -338 -5 -725 -9 -859 -9 -134 -1
-242 -3 -240 -6 3 -2 212 -7 465 -10 1040 -12 1234 -18 1272 -41 25 -17 28
-42 8 -70 -14 -18 -15 -18 -24 7 -6 15 -18 29 -28 33 -16 6 -44 -9 -44 -25 0
-4 -10 -23 -22 -43 -23 -35 -45 -44 -63 -27 -12 11 -171 18 -181 9 -8 -9 -7
-385 2 -399 3 -6 14 -9 24 -6 9 2 39 1 65 -3 39 -6 56 -4 82 11 19 11 35 14
38 9 4 -6 3 -10 -1 -10 -3 0 0 -8 7 -17 9 -11 10 -14 2 -9 -8 4 -29 -6 -54
-26 -31 -25 -42 -29 -49 -19 -5 9 -14 11 -26 6 -27 -12 -43 -13 -314 -20 -320
-8 -2480 -10 -2995 -2 -347 6 -400 9 -403 22 -4 16 -14 19 -25 9 -4 -4 -19 -8
-34 -9 -16 -2 -33 -4 -40 -6 -6 -2 -11 -1 -12 4 -3 25 1 37 14 37 8 0 15 6 15
13 0 11 16 13 73 9 l73 -4 28 37 c26 34 28 42 23 100 -5 73 -26 106 -84 136
-45 23 -49 23 -33 4 7 -8 18 -15 24 -15 20 0 54 -42 61 -75 5 -24 4 -27 -5
-13 -6 10 -32 32 -58 49 -26 18 -53 39 -59 47 -18 22 -16 45 2 38 9 -3 15 0
15 9 0 22 22 30 32 11 20 -35 98 -42 98 -9 0 30 -43 92 -69 99 -79 23 -143
-13 -155 -86 -4 -27 -12 -41 -27 -45 -30 -10 -34 1 -11 30 12 15 19 32 16 40
-3 7 -1 16 5 20 6 3 11 15 11 26 0 10 5 19 11 19 8 0 8 5 -1 15 -17 20 -30 19
-57 -7 -36 -34 -40 -12 -5 25 18 18 32 36 32 39 0 8 -71 20 -116 20 -38 0 -54
14 -27 22 46 13 253 18 1323 32 267 3 487 8 489 10 2 2 -121 4 -275 4 -153 1
-560 6 -904 12 -344 6 -659 11 -700 11 -64 0 -139 -15 -197 -39 -25 -11 -13
33 12 46 40 21 30 30 -35 30 -47 0 -64 -4 -80 -20z m4526 -258 c-21 -22 -29
-11 -16 24 10 27 12 27 22 10 8 -14 6 -22 -6 -34z m118 21 c-9 -38 -12 -40
-28 -17 -16 21 -5 44 20 44 11 0 13 -7 8 -27z m-3933 -9 c12 -14 11 -16 -5
-13 -11 2 -21 10 -24 17 -5 17 13 15 29 -4z m3879 6 c0 -5 -7 -10 -16 -10 -8
0 -12 5 -9 10 3 6 10 10 16 10 5 0 9 -4 9 -10z m-135 -30 c3 -6 0 -10 -7 -10
-15 0 -38 19 -38 32 0 10 36 -8 45 -22z m-4040 2 c0 -18 -20 -15 -23 4 -3 10
1 15 10 12 7 -3 13 -10 13 -16z m4226 -25 c-1 -4 -1 -32 -1 -62 0 -78 -15 -69
-16 10 -1 37 3 64 8 63 5 -2 9 -7 9 -11z m-91 -4 c-1 -18 -19 -35 -29 -28 -9
5 -9 10 0 21 12 15 29 19 29 7z m-149 -23 c16 -9 19 -22 19 -91 l0 -80 -31
-11 c-22 -7 -27 -14 -20 -21 18 -18 13 -29 -11 -25 -14 2 -26 14 -32 30 -10
29 0 51 13 29 14 -22 22 17 22 102 0 79 4 86 40 67z m-3854 -60 c10 -22 23
-40 30 -40 6 0 18 -6 26 -14 7 -8 24 -16 37 -18 34 -5 47 -57 20 -79 -10 -9
-16 -19 -13 -23 4 -3 0 -6 -8 -6 -19 0 -39 20 -39 38 0 12 3 12 15 2 23 -19
29 -5 10 23 -19 30 -69 44 -90 27 -8 -6 -19 -9 -25 -5 -8 5 -3 11 12 19 12 6
24 19 26 29 3 14 -1 17 -21 12 -32 -8 -43 19 -22 51 9 13 18 24 20 24 3 0 13
-18 22 -40z m4094 -72 c6 -49 -5 -123 -16 -120 -5 1 -10 7 -9 12 1 6 2 39 3
75 1 68 16 89 22 33z m-102 -34 c-18 -22 -23 -9 -8 26 12 27 14 28 17 10 2
-12 -2 -28 -9 -36z m-4174 26 c21 -23 12 -39 -13 -24 -19 12 -29 44 -14 44 5
0 17 -9 27 -20z m95 -5 c0 -14 -4 -25 -10 -25 -11 0 -14 33 -3 43 11 11 13 8
13 -18z m67 -72 c-3 -10 -5 -2 -5 17 0 19 2 27 5 18 2 -10 2 -26 0 -35z m35
-65 c-15 -15 -26 -4 -18 18 5 13 9 15 18 6 9 -9 9 -15 0 -24z m-411 -131 c25
-18 96 -19 2218 -20 1936 -2 2193 -4 2201 -17 15 -23 12 -27 -22 -40 -96 -37
-3682 -38 -4273 -2 -137 8 -178 25 -207 82 -18 34 -25 120 -11 133 3 4 20 -21
37 -55 17 -34 43 -71 57 -81z m4480 110 c-8 -8 -11 -7 -11 4 0 20 13 34 18 19
3 -7 -1 -17 -7 -23z m-4121 -6 c0 -6 -4 -13 -10 -16 -5 -3 -10 1 -10 9 0 9 5
16 10 16 6 0 10 -4 10 -9z"/>
<path d="M1170 4940 c0 -5 5 -10 10 -10 6 0 10 5 10 10 0 6 -4 10 -10 10 -5 0
-10 -4 -10 -10z"/>
<path d="M3210 5279 c0 -5 5 -7 10 -4 6 3 10 8 10 11 0 2 -4 4 -10 4 -5 0 -10
-5 -10 -11z"/>
<path d="M3518 5283 c7 -3 16 -2 19 1 4 3 -2 6 -13 5 -11 0 -14 -3 -6 -6z"/>
<path d="M1210 5173 c1 -27 1 -27 15 -9 19 25 19 36 0 36 -10 0 -15 -10 -15
-27z"/>
<path d="M5138 5170 c-15 -15 -25 -30 -21 -34 7 -7 63 43 63 56 0 14 -14 7
-42 -22z"/>
<path d="M1540 5123 c-45 -14 -59 -28 -69 -68 -17 -68 3 -121 59 -152 25 -14
54 -33 64 -43 17 -17 18 -22 6 -52 -18 -46 -25 -51 -49 -39 -29 16 -45 49 -31
65 8 11 5 15 -14 18 -47 9 -61 -34 -27 -86 42 -63 123 -76 172 -27 28 29 34
45 29 86 -3 28 -57 93 -92 111 -16 8 -38 24 -49 35 -24 24 -25 59 -1 59 10 0
23 5 28 10 7 7 16 4 29 -10 21 -23 85 -28 85 -7 0 18 -21 37 -40 37 -9 0 -27
11 -40 25 -13 14 -18 25 -11 25 7 0 9 5 6 10 -6 10 -29 12 -55 3z"/>
<path d="M4693 5111 c-49 -30 -66 -73 -71 -174 -4 -78 -2 -95 19 -138 27 -59
70 -89 125 -89 99 1 148 121 117 288 -20 103 -115 160 -190 113z m132 -36 c14
-13 25 -32 25 -41 0 -12 -8 -9 -35 15 -20 17 -42 31 -50 31 -8 0 -15 5 -15 10
0 20 51 10 75 -15z m-35 -64 c5 -11 10 -54 10 -95 0 -65 -3 -79 -22 -98 -13
-13 -22 -29 -20 -35 5 -22 -28 -14 -53 13 -28 30 -45 96 -26 102 6 2 11 12 11
22 0 24 19 69 38 93 20 23 49 22 62 -2z"/>
<path d="M1737 5113 c-8 -14 -6 -369 2 -382 5 -8 38 -12 106 -12 102 -1 128 8
105 36 -9 10 -31 15 -76 15 -54 0 -65 3 -78 22 -37 53 -2 98 76 98 24 0 50 5
58 10 26 16 -4 32 -62 33 -64 0 -78 9 -78 53 0 39 12 45 93 43 64 -2 73 2 63
27 -6 14 -17 16 -76 11 -41 -3 -71 -2 -71 4 -3 19 -5 24 -12 37 -9 13 -43 17
-50 5z"/>
<path d="M2004 5107 c-2 -7 -3 -96 -2 -197 l3 -185 24 -3 c36 -5 45 11 26 48
-14 27 -15 41 -4 106 13 84 8 206 -11 229 -15 18 -29 19 -36 2z"/>
<path d="M4373 5098 c-32 -35 -44 -66 -52 -125 -9 -62 3 -152 25 -195 31 -60
116 -86 172 -51 60 37 70 52 65 96 -7 62 -12 75 -23 57 -7 -11 -11 -11 -24 -1
-9 8 -16 22 -16 32 0 22 -38 45 -52 31 -5 -5 -8 -27 -6 -48 2 -32 7 -40 26
-42 26 -4 28 -14 7 -32 -12 -10 -13 -16 -5 -24 9 -8 20 -2 42 24 27 32 29 33
26 11 -2 -16 -17 -32 -49 -49 -42 -24 -48 -25 -78 -12 -44 18 -60 45 -67 116
-7 66 10 130 26 104 6 -9 10 -10 10 -3 0 35 74 60 86 28 7 -18 54 -20 77 -2
13 10 14 15 4 28 -7 8 -21 16 -32 16 -11 1 -41 8 -67 15 -39 12 -45 16 -37 31
15 27 -33 22 -58 -5z"/>
<path d="M2186 5102 c-3 -5 -8 -38 -12 -74 -7 -69 3 -91 31 -68 21 18 21 150
1 150 -8 0 -17 -4 -20 -8z"/>
<path d="M2356 5101 c-4 -6 -8 -90 -9 -187 -2 -133 1 -178 10 -186 18 -14 167
-5 187 12 35 28 18 37 -58 32 -102 -6 -104 -2 -100 172 2 97 -1 139 -10 152
-9 12 -15 14 -20 5z"/>
<path d="M2632 4918 l3 -193 75 -2 c41 -2 86 0 98 3 40 8 8 31 -54 37 -83 9
-84 10 -85 156 -1 139 -8 182 -27 189 -10 3 -12 -37 -10 -190z"/>
<path d="M2882 4918 l3 -193 24 -3 c36 -5 48 13 25 39 -17 18 -20 41 -24 182
-4 117 -8 162 -18 165 -10 3 -12 -37 -10 -190z"/>
<path d="M3026 5101 c-8 -13 -9 -361 -1 -369 9 -9 172 -10 186 -2 23 15 -2 27
-67 33 -36 2 -71 10 -77 16 -8 8 -12 62 -12 161 0 98 -4 153 -11 160 -8 8 -14
8 -18 1z"/>
<path d="M3967 5103 c-9 -8 -9 -346 -1 -367 7 -18 74 -23 74 -6 0 6 -10 24
-22 41 -20 27 -21 34 -11 83 8 38 8 66 1 94 -7 27 -7 51 -1 69 17 50 -13 114
-40 86z"/>
<path d="M3291 5076 c-9 -10 -15 -39 -15 -66 0 -58 17 -81 86 -116 32 -16 50
-32 54 -49 9 -37 24 -30 24 10 0 32 -5 39 -54 70 -67 43 -70 47 -76 114 -5 49
-6 53 -19 37z"/>
<path d="M3686 5067 c-22 -33 -39 -123 -34 -176 8 -73 46 -143 91 -165 33 -16
45 -17 78 -7 35 11 59 34 59 60 0 5 -12 4 -27 -5 -60 -30 -115 -11 -147 53
-22 45 -21 150 3 213 15 40 16 50 5 50 -7 0 -20 -10 -28 -23z"/>
<path d="M3392 5048 c9 -13 28 -24 44 -26 l29 -3 -30 25 c-40 33 -64 35 -43 4z"/>
<path d="M3756 5054 c-23 -22 -20 -26 12 -19 21 4 33 0 48 -16 16 -18 19 -35
18 -111 -2 -101 12 -113 35 -32 32 114 -49 242 -113 178z"/>
<path d="M4063 5060 c-40 -16 -25 -30 30 -30 59 0 72 6 56 27 -13 15 -53 16
-86 3z"/>
<path d="M2435 5050 c-3 -6 1 -12 9 -15 9 -3 23 -7 31 -10 8 -2 15 -13 15 -24
0 -29 17 -35 30 -11 17 31 -11 70 -50 70 -16 0 -32 -5 -35 -10z"/>
<path d="M3122 5048 c5 -15 67 -18 71 -3 1 6 -15 11 -37 13 -28 3 -37 0 -34
-10z"/>
<path d="M3112 4923 c-24 -10 0 -23 44 -23 47 0 59 14 22 24 -26 7 -48 7 -66
-1z"/>
<path d="M2098 4914 c-8 -13 10 -176 21 -187 14 -14 56 -3 59 16 2 10 -3 24
-11 30 -8 7 -18 33 -21 59 -7 46 -38 100 -48 82z"/>
<path d="M2237 4900 c-11 -46 -15 -135 -6 -157 9 -23 43 -31 54 -13 3 5 -1 22
-9 37 -8 16 -19 57 -23 93 -7 49 -11 59 -16 40z"/>
<path d="M2440 4905 c-11 -13 -9 -15 13 -15 26 0 43 -14 48 -43 6 -26 23 -26
27 1 8 53 -57 95 -88 57z"/>
<path d="M4048 4909 c-32 -18 -19 -29 37 -29 48 0 55 2 55 20 0 16 -7 20 -37
20 -21 0 -46 -5 -55 -11z"/>
<path d="M3270 4819 c0 -77 109 -133 168 -87 24 20 11 28 -42 28 -48 0 -57 3
-80 31 -14 17 -26 35 -26 40 0 5 -4 9 -10 9 -5 0 -10 -9 -10 -21z"/>
<path d="M683 4328 c-22 -35 -7 -907 22 -1204 51 -535 150 -915 321 -1243 312
-598 801 -1019 1389 -1196 228 -69 382 -89 645 -82 222 5 361 22 470 58 14 4
70 22 125 39 96 30 358 151 400 184 l20 16 -20 -7 c-11 -3 -25 -10 -30 -14
-28 -21 -182 -91 -280 -127 -240 -87 -448 -123 -710 -123 -198 -1 -333 15
-496 56 -400 102 -724 288 -1025 589 -198 198 -310 350 -457 618 -236 427
-356 1113 -345 1968 l3 276 25 31 c14 18 28 32 31 32 3 1 9 -171 13 -381 3
-211 11 -428 16 -483 5 -55 15 -156 20 -225 15 -169 26 -247 70 -490 21 -116
110 -427 130 -455 4 -5 11 -21 15 -35 12 -41 111 -234 171 -333 220 -362 523
-656 869 -844 444 -241 956 -308 1440 -190 481 118 937 463 1258 953 138 211
291 592 381 949 96 386 143 761 153 1245 5 238 3 280 -10 313 -31 73 68 69
-1426 62 -735 -3 -1705 -2 -2156 3 -653 6 -831 6 -875 -5 -86 -19 -92 -18 -88
20 3 29 1 32 -29 35 -18 2 -35 -2 -40 -10z m117 -87 c0 -5 -7 -14 -15 -21 -12
-10 -15 -10 -15 2 0 8 3 18 7 21 9 10 23 9 23 -2z m3670 -1 c77 -1 82 -3 54
-13 -40 -16 -85 -57 -61 -57 13 0 97 34 117 48 2 2 -2 7 -10 12 -10 6 33 9
120 9 110 -1 126 -3 85 -10 -27 -5 -64 -6 -81 -3 -37 7 -94 -19 -94 -41 0 -8
-7 -15 -15 -15 -8 0 -15 -4 -15 -10 0 -13 17 -13 26 1 4 6 20 9 39 6 18 -3 37
-2 41 3 5 4 19 11 32 15 18 5 22 3 22 -15 0 -21 1 -22 25 -6 32 21 52 22 35 1
-15 -18 -8 -19 60 -5 29 5 49 5 57 -2 15 -12 134 -14 219 -4 78 10 89 -1 73
-70 -6 -27 -13 -138 -15 -246 -2 -108 -9 -209 -14 -223 -13 -34 -13 -35 5 -35
20 0 19 -10 -6 -36 -13 -14 -18 -27 -13 -36 5 -7 7 -24 5 -37 -2 -17 1 -22 12
-18 12 4 11 -1 -3 -31 -9 -20 -17 -61 -18 -89 -1 -29 -8 -71 -16 -93 -12 -34
-12 -40 0 -40 17 0 18 -14 3 -60 -6 -19 -12 -66 -15 -104 -3 -39 -10 -76 -15
-83 -15 -17 -31 -82 -30 -117 0 -16 -8 -44 -19 -61 -20 -33 -26 -65 -12 -65 4
0 13 9 20 20 7 11 17 20 22 20 16 0 11 -23 -10 -45 -41 -42 -80 -93 -80 -104
0 -8 8 -10 21 -6 17 6 20 3 17 -12 -2 -10 -11 -17 -20 -15 -18 3 -34 -42 -37
-102 0 -16 -13 -50 -29 -75 -39 -66 -44 -81 -26 -81 8 0 20 11 26 25 6 14 15
25 20 25 15 0 8 -13 -31 -59 -21 -26 -41 -56 -45 -67 -3 -12 -22 -36 -42 -54
-20 -17 -33 -35 -30 -38 4 -3 12 0 18 6 24 24 27 11 8 -32 -20 -47 -46 -78
-73 -89 -10 -4 -17 -17 -17 -32 0 -36 -35 -101 -65 -121 -15 -10 -25 -26 -25
-39 0 -40 -18 -74 -37 -72 -23 1 -132 -64 -133 -80 0 -6 -14 -21 -31 -34 -22
-16 -28 -24 -19 -33 8 -8 13 -8 18 1 8 13 79 63 90 63 9 0 9 -56 -1 -66 -4 -4
-7 -2 -7 4 0 25 -31 11 -41 -18 -10 -29 -39 -42 -39 -19 0 8 -5 8 -15 -1 -8
-7 -15 -18 -15 -25 0 -19 -30 -75 -41 -75 -5 0 -9 -8 -9 -17 -1 -16 -2 -16
-15 2 -15 19 -15 19 -31 -3 -15 -22 -83 -57 -92 -47 -3 3 3 15 14 28 11 12 45
60 77 107 140 210 175 257 210 279 20 13 37 32 37 42 0 10 27 60 60 111 59 91
67 111 52 135 -14 22 -94 -60 -177 -182 -137 -201 -333 -463 -387 -517 -17
-17 -54 -18 -520 -18 -470 1 -939 11 -1294 28 -170 8 -161 4 -286 119 -31 29
-83 65 -115 82 -32 16 -82 45 -112 65 -29 20 -57 36 -61 36 -4 0 -13 7 -20 15
-11 13 -15 13 -39 -4 -14 -10 -31 -16 -38 -14 -6 2 -14 -1 -18 -6 -10 -17 -25
-13 -19 4 4 8 14 15 23 15 25 0 33 11 19 28 -10 11 -7 18 12 32 21 16 26 17
28 5 5 -22 13 -19 51 20 20 20 28 35 20 35 -8 0 -24 3 -36 6 -15 4 -23 2 -23
-6 0 -7 7 -10 15 -6 9 3 15 0 15 -8 0 -18 -28 -28 -48 -17 -9 5 -26 5 -39 0
-14 -5 -25 -4 -29 2 -7 12 14 40 30 38 31 -4 37 1 22 16 -11 11 -21 13 -39 6
-31 -12 -48 -79 -23 -93 22 -12 20 -25 -5 -31 -27 -7 -51 2 -42 16 4 6 5 33 4
59 -2 39 1 49 16 55 10 3 26 13 35 20 9 8 21 12 27 9 5 -4 14 1 19 9 11 21 42
9 42 -17 0 -12 4 -17 12 -12 24 15 62 13 87 -5 14 -10 52 -30 84 -45 44 -20
57 -32 57 -49 1 -19 2 -20 13 -6 9 12 25 15 67 12 48 -3 63 0 115 30 65 36
123 103 156 175 32 72 22 76 -35 15 -69 -75 -144 -117 -206 -116 -45 1 -140
41 -232 99 -37 24 -38 25 -38 87 -1 74 -37 192 -60 192 -11 0 -17 -16 -22 -55
-4 -30 -12 -68 -17 -83 -6 -16 -9 -33 -6 -37 3 -5 1 -39 -5 -75 -11 -69 -39
-112 -59 -92 -7 7 -15 6 -26 -3 -10 -8 -15 -9 -15 -1 0 6 5 11 10 11 6 0 10 7
10 17 0 15 -1 15 -18 0 -24 -22 -94 -12 -90 12 2 9 10 16 18 16 8 0 25 6 38
13 17 10 27 10 36 3 10 -8 16 -4 26 17 7 15 15 22 17 15 8 -22 21 -14 32 19
14 40 5 50 -20 20 -10 -13 -22 -21 -27 -18 -5 3 -17 -3 -26 -13 -10 -11 -25
-17 -36 -14 -10 3 -28 0 -40 -7 -30 -16 -40 -2 -14 19 22 18 41 61 27 61 -4 0
-26 -16 -48 -35 -22 -19 -44 -35 -50 -34 -5 0 -2 6 8 13 9 7 17 19 17 26 0 20
31 50 50 50 10 0 20 10 23 23 2 12 8 30 12 40 11 27 -23 22 -36 -5 -5 -13 -21
-28 -33 -34 l-24 -11 24 45 c27 50 26 59 -4 43 -12 -6 -23 -11 -25 -11 -11 0
-17 54 -8 63 6 6 11 19 11 29 0 11 7 18 19 18 26 0 44 25 36 51 -7 21 -8 21
-33 -11 -14 -19 -36 -45 -49 -58 -13 -14 -23 -37 -23 -52 0 -15 -9 -35 -20
-45 -25 -23 -39 -12 -17 13 10 10 17 28 17 39 0 11 6 26 14 32 16 13 28 51 17
51 -5 0 -16 -9 -26 -20 -10 -11 -22 -17 -27 -12 -17 17 4 41 48 58 49 19 73
49 55 67 -8 8 -11 7 -11 -4 0 -7 -4 -20 -9 -28 -8 -12 -12 -12 -25 -2 -9 8
-16 9 -16 3 0 -5 -9 -12 -20 -15 -30 -8 -25 21 5 33 16 6 25 17 25 31 0 13 7
31 16 41 15 16 15 18 1 24 -18 6 -12 34 8 34 7 0 15 7 19 15 3 8 16 15 29 15
25 0 67 40 67 64 0 27 -19 27 -26 1 -4 -15 -17 -31 -32 -36 -33 -13 -49 3 -26
25 9 9 14 20 10 23 -9 10 -36 -18 -36 -38 0 -21 -35 -48 -65 -50 -15 -1 -16
-2 -3 -6 12 -3 16 -14 14 -46 -2 -34 -6 -42 -22 -42 -12 0 -24 -12 -33 -32 -8
-18 -18 -33 -23 -33 -11 0 -10 18 2 25 6 3 10 19 10 35 0 16 7 35 15 44 17 16
5 29 -19 20 -8 -3 -16 -20 -18 -37 -2 -22 -9 -33 -22 -35 -16 -4 -15 2 10 48
16 29 37 56 49 61 28 12 60 41 68 62 6 15 4 16 -15 6 -19 -10 -20 -9 -14 14 3
15 1 27 -5 29 -9 3 -9 10 0 27 12 21 11 22 -11 19 -19 -2 -24 -10 -28 -51 -5
-38 -13 -53 -40 -77 -19 -16 -39 -29 -44 -30 -12 0 3 52 20 71 8 8 14 20 14
26 0 5 9 18 19 27 10 9 17 25 14 34 -4 18 35 72 53 72 18 0 54 31 48 41 -4 6
-11 6 -20 -2 -7 -6 -21 -8 -30 -5 -13 5 -14 9 -4 21 7 9 10 18 7 21 -10 10
-27 -6 -27 -27 0 -10 -6 -19 -14 -19 -16 0 -12 25 8 52 11 15 17 16 63 2 72
-21 82 -36 49 -75 -39 -45 -23 -48 19 -4 34 37 36 38 55 20 11 -10 23 -15 26
-12 4 3 25 -3 47 -14 100 -52 104 -52 213 -3 55 25 106 49 115 54 9 5 97 45
195 90 99 45 186 88 194 96 13 14 12 17 -7 34 -23 18 -23 22 -23 252 0 282 10
519 22 512 4 -3 8 18 8 45 0 47 -12 68 -23 39 -4 -10 -7 -10 -18 0 -11 10 -11
16 -1 32 6 11 12 24 12 28 0 12 -73 -6 -135 -33 -27 -13 -81 -32 -120 -45 -38
-12 -85 -28 -103 -37 -18 -8 -43 -16 -55 -17 -12 -1 -36 -10 -54 -19 -18 -9
-39 -17 -48 -17 -9 0 -30 -7 -47 -16 -24 -12 -36 -14 -55 -5 -20 9 -22 13 -11
31 15 24 28 26 28 5 0 -9 6 -12 15 -9 17 7 21 34 5 34 -6 0 2 18 17 41 27 41
63 64 96 60 9 -1 17 2 17 8 0 6 -8 8 -17 4 -14 -5 -13 -1 5 19 42 47 19 54
-26 8 -31 -31 -76 -44 -53 -16 8 10 9 16 1 21 -15 9 -2 25 21 25 10 0 19 7 19
15 0 18 -45 11 -71 -11 -22 -20 -77 -7 -85 19 -5 17 -8 18 -15 5 -7 -12 -20
-14 -54 -11 -35 4 -46 2 -51 -11 -9 -24 -24 -19 -24 9 0 29 -15 32 -56 10 -25
-13 -29 -13 -32 -1 -4 16 -92 26 -134 15 -21 -6 -27 -3 -31 13 -5 17 -9 18
-27 8 -15 -8 -42 -9 -83 -4 -34 4 -73 8 -87 9 -42 4 -43 5 -30 19 6 8 18 12
26 9 8 -3 21 0 29 7 12 10 18 10 30 0 8 -7 22 -9 32 -5 10 4 64 9 119 10 56 2
111 6 123 10 11 3 21 3 21 -2 0 -15 193 -5 247 13 43 15 53 23 58 46 l7 28
159 0 c104 0 158 -3 154 -10 -3 -5 -12 -10 -20 -10 -8 0 -17 -5 -21 -12 -5 -8
-2 -9 9 -5 9 3 19 2 22 -4 9 -14 25 -1 25 21 0 17 9 20 93 22 95 3 2214 1
2367 -2z m-3247 -7 c-7 -2 -19 -2 -25 0 -7 3 -2 5 12 5 14 0 19 -2 13 -5z
m134 1 c-3 -3 -12 -4 -19 -1 -8 3 -5 6 6 6 11 1 17 -2 13 -5z m112 2 c-10 -9
-79 -14 -79 -5 0 5 19 9 42 9 23 0 39 -2 37 -4z m188 -3 c-8 -8 -167 -7 -175
1 -3 4 37 6 88 6 51 0 90 -3 87 -7z m3286 0 c-7 -2 -19 -2 -25 0 -7 3 -2 5 12
5 14 0 19 -2 13 -5z m124 1 c-3 -3 -12 -4 -19 -1 -8 3 -5 6 6 6 11 1 17 -2 13
-5z m-3455 -46 c-7 -7 -12 -8 -12 -2 0 14 12 26 19 19 2 -3 -1 -11 -7 -17z
m-132 -2 c0 -11 -19 -15 -25 -6 -3 5 1 10 9 10 9 0 16 -2 16 -4z m110 -166 c0
-5 -7 -10 -16 -10 -8 0 -12 5 -9 10 3 6 10 10 16 10 5 0 9 -4 9 -10z m120 -45
c0 -6 -11 -22 -25 -35 -14 -13 -25 -29 -25 -37 0 -21 -17 -15 -23 9 -4 12 -1
29 6 37 7 8 10 23 9 34 -5 28 19 40 40 20 10 -9 18 -21 18 -28z m-180 -5 c0
-5 -4 -10 -10 -10 -5 0 -10 5 -10 10 0 6 5 10 10 10 6 0 10 -4 10 -10z m61
-23 c-8 -8 -11 -7 -11 4 0 20 13 34 18 19 3 -7 -1 -17 -7 -23z m-50 -58 c-13
-14 -21 -18 -21 -9 0 13 32 42 38 35 2 -2 -5 -14 -17 -26z m79 22 c0 -19 -23
-71 -31 -71 -8 0 -5 29 7 68 4 13 24 17 24 3z m-138 -23 c-7 -7 -12 -8 -12 -2
0 14 12 26 19 19 2 -3 -1 -11 -7 -17z m743 -389 l0 -394 -95 -47 c-52 -26
-101 -47 -108 -48 -12 0 -78 -29 -268 -121 -45 -21 -84 -39 -87 -39 -4 0 -35
14 -69 30 -34 17 -65 30 -70 30 -5 0 -21 12 -36 26 -15 14 -37 30 -49 35 -13
4 -23 16 -23 24 0 9 -4 14 -10 10 -5 -3 -20 -3 -34 1 -32 8 -40 60 -13 87 22
22 22 37 -2 37 -14 0 -22 -12 -30 -45 -6 -25 -16 -45 -21 -45 -13 0 -13 17 0
25 6 3 10 15 10 26 0 11 18 39 41 61 42 41 60 46 37 9 -14 -23 -4 -51 22 -59
9 -3 11 2 6 23 -7 27 -7 27 33 20 32 -5 48 -2 75 14 35 22 57 20 88 -7 14 -11
23 -12 49 -3 18 6 41 19 51 28 17 15 18 15 18 0 0 -11 8 -17 25 -17 21 0 25 5
25 30 0 25 4 30 24 30 13 0 35 9 49 20 14 11 28 20 31 20 3 0 6 -24 8 -52 l3
-53 56 -3 c41 -2 59 1 69 13 7 8 11 15 9 16 -2 0 -22 3 -44 5 -51 6 -63 18
-47 45 11 18 11 23 -4 33 -13 10 -15 21 -10 50 6 33 5 37 -11 34 -10 -2 -19
-14 -21 -28 -5 -36 -18 -46 -38 -29 -15 12 -19 11 -32 -9 -20 -30 -55 -30 -50
1 2 17 9 22 31 20 41 -3 33 22 -13 37 -53 18 -62 7 -61 -69 0 -34 -3 -61 -8
-61 -13 0 -101 85 -101 98 0 6 9 16 20 22 23 12 18 30 -7 30 -28 0 -63 -41
-63 -72 0 -25 6 -32 50 -50 40 -17 48 -23 39 -34 -15 -18 -24 -18 -43 2 -9 8
-26 14 -38 12 -19 -3 -23 2 -24 27 0 37 -13 62 -54 100 l-31 30 -37 -21 c-20
-12 -42 -32 -49 -44 l-11 -22 -11 21 c-9 17 -9 21 2 21 15 0 77 58 77 72 0 4
-7 8 -15 8 -8 0 -15 -9 -15 -19 0 -24 -11 -32 -28 -22 -9 6 -9 15 4 39 12 25
22 32 45 32 23 0 29 -4 30 -22 0 -23 0 -23 9 -2 12 31 38 37 51 12 11 -20 13
-20 24 -5 8 11 26 17 54 17 29 0 41 4 41 14 0 8 -5 18 -10 21 -6 3 -7 17 -4
31 3 13 2 24 -4 24 -5 0 -12 -9 -15 -21 -4 -15 -12 -20 -29 -17 -22 3 -23 7
-23 81 -1 60 3 78 15 82 8 3 26 15 40 26 24 20 24 20 3 14 -19 -5 -23 -2 -23
14 0 12 4 21 9 21 20 0 71 -23 71 -32 0 -13 -59 -68 -73 -68 -6 0 -8 -2 -5 -5
11 -11 64 20 98 58 32 36 112 77 149 77 8 0 33 8 55 19 23 10 75 30 116 45 41
15 93 36 115 46 54 24 68 29 80 26 6 -2 10 -142 10 -397z m-814 296 c-1 -15
-24 -12 -29 3 -3 9 2 13 12 10 10 -1 17 -7 17 -13z m153 -45 c34 -13 36 -62 4
-84 -27 -19 -44 -6 -29 22 15 29 14 52 -3 52 -8 0 -18 5 -21 10 -8 13 16 13
49 0z m-70 -34 c-6 -16 -24 -23 -24 -8 0 10 22 33 27 28 2 -2 1 -11 -3 -20z
m-184 -22 c0 -8 -4 -12 -10 -9 -5 3 -10 10 -10 16 0 5 5 9 10 9 6 0 10 -7 10
-16z m150 2 c0 -3 -4 -8 -10 -11 -5 -3 -10 -1 -10 4 0 6 5 11 10 11 6 0 10 -2
10 -4z m33 -36 c-3 -11 0 -20 6 -20 6 0 11 -4 11 -10 0 -5 -9 -10 -20 -10 -10
0 -24 -9 -30 -20 -6 -11 -15 -20 -20 -20 -6 0 -10 9 -10 20 0 11 6 20 14 20 8
0 20 14 28 30 15 34 29 41 21 10z m9 -105 c-15 -33 -15 -35 3 -35 8 0 15 -7
15 -16 0 -12 -9 -14 -42 -12 -38 3 -43 6 -45 28 -1 14 0 18 3 8 6 -20 6 -20
28 -12 20 8 21 24 1 24 -21 0 -19 10 7 37 28 30 47 15 30 -22z m-122 0 c0 -19
-20 -29 -32 -17 -7 7 -6 15 3 25 16 17 29 13 29 -8z m0 -45 c0 -5 -4 -10 -10
-10 -5 0 -10 5 -10 10 0 6 5 10 10 10 6 0 10 -4 10 -10z m-5 -80 c-3 -5 -12
-10 -20 -10 -8 0 -17 5 -20 10 -4 6 5 10 20 10 15 0 24 -4 20 -10z m-78 -42
c-3 -8 -6 -5 -6 6 -1 11 2 17 5 13 3 -3 4 -12 1 -19z m-49 -10 c-2 -6 -10 -14
-16 -16 -7 -2 -10 2 -6 12 7 18 28 22 22 4z m116 3 c7 -10 -22 -37 -30 -28 -9
8 3 37 15 37 5 0 12 -4 15 -9z m141 -110 c7 -32 -19 -85 -39 -78 -14 5 -20 34
-10 55 7 16 10 24 13 45 3 20 30 3 36 -22z m-115 -16 c0 -8 -4 -15 -10 -15 -5
0 -10 7 -10 15 0 8 5 15 10 15 6 0 10 -7 10 -15z m-81 -47 c2 -17 -25 -7 -38
13 -11 19 -11 21 3 16 9 -4 16 -1 17 6 0 11 17 -20 18 -35z m-24 -119 c-10
-15 -25 -10 -19 6 4 8 10 12 15 9 5 -3 7 -10 4 -15z m115 -109 c0 -5 -7 -10
-15 -10 -8 0 -15 5 -15 10 0 6 7 10 15 10 8 0 15 -4 15 -10z m-180 -4 c0 -3
-4 -8 -10 -11 -5 -3 -10 -1 -10 4 0 6 5 11 10 11 6 0 10 -2 10 -4z m90 -45 c0
-5 -7 -14 -15 -21 -16 -14 -18 -10 -9 14 6 17 24 22 24 7z m-11 -96 c0 -12
-38 -59 -44 -54 -2 2 1 26 7 52 9 44 11 47 24 30 7 -10 13 -22 13 -28z m-73
-61 c-4 -9 -9 -15 -11 -12 -3 3 -3 13 1 22 4 9 9 15 11 12 3 -3 3 -13 -1 -22z
m-74 -26 c-7 -7 -12 -8 -12 -2 0 14 12 26 19 19 2 -3 -1 -11 -7 -17z m77 -50
c-8 -14 -14 -18 -17 -10 -4 13 17 46 25 38 3 -2 -1 -15 -8 -28z m1 -298 c0 -5
-5 -10 -11 -10 -5 0 -7 5 -4 10 3 6 8 10 11 10 2 0 4 -4 4 -10z m110 -110 c-6
-11 -15 -20 -20 -20 -14 0 -12 27 3 33 23 10 28 7 17 -13z m-39 -67 c-12 -20
-14 -14 -5 12 4 9 9 14 11 11 3 -2 0 -13 -6 -23z m58 -80 c-13 -16 -27 -32
-31 -37 -5 -6 -8 -6 -8 1 0 15 40 63 52 63 7 0 1 -12 -13 -27z m54 -19 c8 -8
-3 -34 -14 -34 -5 0 -9 9 -9 20 0 19 11 26 23 14z m44 -130 c2 -7 -10 -14 -27
-16 -32 -5 -37 1 -18 20 15 15 40 12 45 -4z m-7 -74 c0 -5 -5 -10 -11 -10 -5
0 -7 5 -4 10 3 6 8 10 11 10 2 0 4 -4 4 -10z m73 -46 c-10 -21 -24 -39 -30
-42 -20 -6 -15 16 6 35 11 9 18 20 15 25 -3 5 0 16 7 25 21 24 22 -1 2 -43z
m17 -114 c0 -5 -7 -10 -15 -10 -8 0 -15 5 -15 10 0 6 7 10 15 10 8 0 15 -4 15
-10z m3080 -40 c0 -14 -7 -20 -22 -20 -20 0 -21 1 -3 20 10 11 20 20 22 20 1
0 3 -9 3 -20z m-3046 -5 c-4 -8 -11 -15 -16 -15 -6 0 -5 6 2 15 7 8 14 15 16
15 2 0 1 -7 -2 -15z m157 -55 c10 -6 19 -15 19 -19 0 -14 -37 -20 -49 -8 -7 7
-17 5 -31 -8 -17 -15 -20 -16 -20 -3 0 15 36 46 53 47 5 1 17 -4 28 -9z m29
-75 c0 -8 -4 -15 -10 -15 -5 0 -10 7 -10 15 0 8 5 15 10 15 6 0 10 -7 10 -15z
m94 -54 c-3 -3 -9 1 -14 9 -8 13 -11 12 -24 -5 -19 -26 -25 -18 -19 23 l5 33
29 -27 c16 -15 26 -30 23 -33z m-94 -12 c0 -5 -7 -9 -15 -9 -15 0 -20 12 -9
23 8 8 24 -1 24 -14z m145 -19 c18 -19 18 -22 2 -37 -16 -16 -17 -16 -17 4 0
12 -4 25 -10 28 -12 8 -13 25 -2 25 5 0 17 -9 27 -20z m70 -59 c3 -5 -6 -27
-21 -48 -23 -34 -25 -35 -19 -10 10 37 -7 35 -39 -5 -29 -38 -34 -30 -9 13 10
16 23 29 30 29 8 0 16 7 19 15 7 17 30 20 39 6z m-135 -51 c-6 -11 -16 -20
-22 -20 -6 0 -3 9 7 20 10 11 20 20 22 20 2 0 -1 -9 -7 -20z m185 10 c3 -5 -2
-18 -12 -28 -10 -10 -23 -27 -29 -38 -7 -10 -15 -16 -20 -11 -4 4 -2 13 4 19
7 7 12 19 12 28 0 29 32 51 45 30z m2305 -19 c0 -11 -31 -24 -39 -16 -3 3 1
10 9 15 19 12 30 12 30 1z m-70 -6 c0 -7 -23 -34 -62 -73 -57 -57 -75 -72 -83
-72 -5 0 -19 -10 -31 -21 l-23 -21 6 21 c3 11 10 21 17 21 6 0 24 14 39 30 16
17 32 30 37 30 4 0 20 20 34 45 17 29 34 45 46 45 11 0 20 -2 20 -5z m-2166
-56 c-10 -16 -24 -9 -24 12 0 18 2 19 15 9 8 -7 12 -16 9 -21z m317 -8 c9 4
19 5 23 2 4 -4 42 -6 86 -4 74 2 103 -8 65 -23 -13 -5 -22 -36 -11 -36 3 0 20
14 38 30 27 25 41 30 85 30 29 0 53 -4 53 -10 0 -17 -39 -50 -59 -50 -11 0
-30 -13 -43 -29 -13 -16 -34 -34 -48 -41 -23 -12 -23 -14 -5 -20 24 -9 50 6
64 37 6 12 30 31 55 42 24 12 47 30 51 41 7 21 41 26 160 21 64 -2 50 -2 197
-1 70 1 132 -1 138 -5 7 -4 7 -12 -1 -26 -5 -11 -8 -25 -6 -32 2 -7 11 5 20
25 l16 37 93 0 c103 -1 115 -4 97 -25 -6 -8 -9 -17 -6 -21 9 -8 38 17 32 27
-8 13 17 17 90 13 39 -2 76 -3 83 -3 6 1 27 1 45 1 17 -1 49 -1 71 -1 35 1 38
-1 33 -23 -5 -18 -2 -23 16 -24 17 -2 18 0 7 7 -24 15 1 31 51 32 98 3 190 -5
186 -16 -2 -6 -21 -11 -43 -11 -27 0 -47 -7 -64 -22 -13 -13 -29 -23 -35 -23
-7 0 -33 -16 -58 -36 -33 -25 -47 -44 -47 -60 0 -19 -5 -24 -25 -24 -27 0 -34
15 -10 24 23 8 18 33 -7 40 l-23 6 25 20 25 20 -34 0 c-30 0 -33 -2 -27 -24 3
-13 3 -38 0 -56 -6 -28 -10 -31 -38 -28 -25 2 -31 7 -29 26 2 12 -2 22 -7 22
-6 0 -10 -4 -10 -10 0 -5 -11 -10 -24 -10 -24 0 -41 23 -30 41 7 12 38 11 50
-1 8 -8 19 2 37 29 15 22 27 45 27 51 0 15 -20 12 -26 -5 -7 -16 -59 -45 -83
-45 -14 0 -23 -16 -48 -92 -4 -15 1 -18 25 -18 17 0 34 5 37 10 9 14 35 12 35
-2 -1 -7 -16 -22 -33 -34 -26 -16 -37 -18 -50 -10 -14 9 -22 5 -42 -19 -19
-23 -24 -26 -25 -12 0 25 -21 20 -54 -13 -28 -29 -56 -39 -56 -22 0 16 81 74
95 68 9 -3 19 3 25 15 15 28 8 46 -11 27 -8 -8 -20 -13 -27 -10 -8 2 -24 -6
-38 -19 -13 -12 -32 -24 -42 -25 -66 -10 -111 -29 -121 -50 -6 -13 -14 -24
-19 -24 -16 0 -22 13 -11 26 17 20 -26 27 -61 9 -16 -8 -30 -19 -30 -24 0 -9
-70 -21 -83 -14 -4 3 6 17 23 33 28 26 40 60 22 60 -5 0 -18 -11 -30 -25 -26
-29 -39 -32 -45 -7 -3 14 -6 12 -17 -10 -7 -16 -21 -28 -32 -28 -22 0 -22 4
-3 34 15 23 11 56 -6 56 -5 0 -17 -17 -28 -37 -26 -51 -76 -97 -95 -90 -24 9
-19 26 9 33 25 6 43 42 36 72 -1 8 4 19 12 25 8 7 18 23 22 36 7 24 6 24 -34
-8 -53 -43 -56 -17 -3 33 22 22 31 36 22 36 -22 0 -80 -64 -80 -89 0 -14 -9
-25 -26 -31 -14 -6 -23 -14 -20 -19 8 -12 -17 -72 -29 -68 -18 6 -17 38 1 58
16 18 16 19 -2 19 -26 0 -44 -19 -44 -46 0 -12 -7 -25 -16 -28 -13 -5 -15 -1
-9 21 8 35 43 73 65 73 9 0 23 8 32 18 18 22 40 73 34 79 -9 9 -26 -8 -26 -26
0 -24 -33 -53 -52 -46 -9 4 -26 -4 -41 -19 -26 -26 -47 -34 -47 -17 0 5 11 19
25 32 13 13 25 30 25 37 0 6 7 12 15 12 16 0 21 25 6 34 -12 8 -54 -42 -70
-83 -16 -37 -47 -44 -37 -8 4 12 9 36 13 52 6 29 6 30 -14 13 -11 -10 -26 -18
-35 -18 -8 0 -25 -11 -38 -25 -28 -29 -56 -34 -45 -7 4 9 7 24 8 32 0 8 6 23
14 32 14 15 13 18 -12 24 -39 10 -136 -4 -156 -22 -9 -8 -19 -12 -22 -7 -8 12
56 81 86 92 15 6 27 17 27 26 0 19 -14 19 -30 0 -15 -18 -47 -20 -53 -2 -4 10
-7 10 -18 0 -7 -7 -24 -13 -38 -13 -25 -1 -25 -1 -7 -15 19 -14 19 -15 -7 -15
-20 0 -30 -7 -37 -26 -6 -14 -14 -22 -20 -19 -10 6 -4 50 10 70 3 6 7 21 8 34
1 33 16 39 65 30 23 -4 49 -3 58 2z m-272 -30 c-11 -30 -36 -58 -44 -49 -2 2
0 21 6 41 7 26 16 37 29 37 17 0 18 -4 9 -29z m108 -8 c-20 -36 -40 -44 -35
-15 2 13 -3 16 -24 14 -23 -2 -28 1 -28 18 0 18 5 20 53 18 l54 -2 -20 -33z
m-187 11 c0 -8 -4 -12 -10 -9 -5 3 -10 10 -10 16 0 5 5 9 10 9 6 0 10 -7 10
-16z m133 -40 c7 -8 -13 -54 -25 -54 -10 0 -11 44 -1 53 8 9 18 9 26 1z m1839
-36 c-3 -13 -13 -34 -24 -47 -18 -23 -18 -23 -18 -2 0 23 27 71 40 71 5 0 6
-10 2 -22z m-1668 -18 c-16 -16 -35 -30 -43 -30 -9 0 -3 11 15 30 16 16 35 30
43 30 9 0 3 -11 -15 -30z m-134 -3 c0 -2 -10 -12 -22 -23 l-23 -19 19 23 c18
21 26 27 26 19z m1740 -9 c0 -7 -6 -20 -13 -29 -14 -18 -81 -59 -98 -59 -13 0
23 49 37 50 6 0 21 11 34 25 26 27 40 32 40 13z m-1469 -28 c17 10 18 8 12
-22 -7 -39 -3 -34 -29 -42 -19 -6 -21 -3 -18 31 4 48 4 51 11 36 3 -9 10 -10
24 -3z m-71 -20 c0 -5 -5 -10 -11 -10 -5 0 -7 5 -4 10 3 6 8 10 11 10 2 0 4
-4 4 -10z m-95 -40 c-3 -5 -11 -10 -16 -10 -6 0 -7 5 -4 10 3 6 11 10 16 10 6
0 7 -4 4 -10z m103 -9 c2 -7 -10 -11 -32 -11 -33 0 -44 8 -30 23 10 9 58 1 62
-12z m197 -33 c-4 -15 -19 -30 -40 -40 l-34 -15 23 31 c13 17 26 40 30 50 10
28 29 5 21 -26z m1059 -19 c-9 -10 -21 -19 -26 -19 -15 0 -8 29 9 39 26 14 37
2 17 -20z m-1183 -2 c-13 -13 -26 -3 -16 12 3 6 11 8 17 5 6 -4 6 -10 -1 -17z
m399 -4 c0 -5 -14 -16 -30 -25 -29 -16 -30 -16 -30 2 0 10 6 21 13 23 19 8 47
8 47 0z m710 -24 c-7 -11 -14 -18 -17 -15 -8 8 5 36 17 36 7 0 7 -6 0 -21z
m-934 -16 c-10 -10 -19 5 -10 18 6 11 8 11 12 0 2 -7 1 -15 -2 -18z m714 3 c0
-20 -47 -49 -53 -33 -5 14 22 46 41 46 6 1 12 -5 12 -13z m-160 -6 c0 -5 -4
-10 -10 -10 -5 0 -10 5 -10 10 0 6 5 10 10 10 6 0 10 -4 10 -10z m-250 -24 c0
-16 -18 -31 -27 -22 -8 8 5 36 17 36 5 0 10 -6 10 -14z m-200 -26 c-24 -16
-31 -11 -19 11 8 16 14 18 22 10 9 -9 8 -14 -3 -21z"/>
<path d="M1890 4213 c-19 -9 -30 -18 -24 -20 16 -5 64 15 64 27 0 5 -1 10 -2
9 -2 0 -19 -8 -38 -16z"/>
<path d="M1705 4200 c-14 -16 -16 -23 -7 -32 9 -9 16 -7 32 7 23 21 26 45 7
45 -8 0 -22 -9 -32 -20z"/>
<path d="M1803 4208 c-26 -33 -24 -40 5 -19 18 12 32 24 32 27 0 9 -28 3 -37
-8z"/>
<path d="M4397 4202 c-10 -11 -14 -23 -9 -26 12 -7 35 19 30 34 -2 7 -11 3
-21 -8z"/>
<path d="M4300 4191 c-5 -11 -6 -22 -1 -25 11 -7 43 28 34 37 -11 12 -22 8
-33 -12z"/>
<path d="M2200 4190 c-12 -8 -11 -10 7 -10 12 0 25 5 28 10 8 13 -15 13 -35 0z"/>
<path d="M1865 4160 c-3 -5 -1 -10 4 -10 6 0 11 5 11 10 0 6 -2 10 -4 10 -3 0
-8 -4 -11 -10z"/>
<path d="M4945 4058 c-33 -25 -103 -28 -120 -5 -8 12 -19 7 -58 -28 -58 -53
-62 -81 -12 -87 22 -2 40 1 47 9 6 7 16 13 23 13 7 0 15 7 19 15 9 24 21 17
22 -14 1 -21 -3 -27 -15 -25 -29 7 -60 -29 -76 -90 -8 -33 -13 -62 -10 -64 9
-9 35 21 35 40 0 25 29 68 46 68 23 0 27 -22 6 -39 -23 -18 -54 -86 -44 -96 4
-4 7 -18 7 -32 0 -15 6 -28 13 -30 7 -3 12 5 12 21 0 15 6 26 14 26 7 0 25 10
40 21 15 12 29 19 32 16 8 -7 -15 -47 -26 -47 -6 0 -10 -8 -10 -18 0 -27 -39
-65 -53 -53 -9 7 -16 2 -23 -14 -9 -19 -9 -25 2 -29 17 -7 8 -33 -14 -39 -10
-3 -3 -5 14 -6 33 -1 44 12 44 50 0 10 7 19 15 19 10 0 15 -10 15 -32 0 -22 3
-28 9 -20 4 7 6 24 3 38 -2 14 0 24 7 24 6 0 11 -4 11 -10 0 -19 38 -10 43 10
9 34 23 22 19 -15 -3 -25 -9 -35 -22 -35 -25 0 -43 -25 -35 -49 3 -12 0 -23
-9 -28 -14 -8 -19 -24 -17 -55 2 -29 14 -21 56 37 22 30 43 55 48 55 10 0 -1
-61 -14 -74 -5 -6 -9 -19 -9 -29 0 -17 2 -18 16 -6 9 7 23 30 31 51 16 39 28
48 36 26 3 -8 9 -2 15 13 6 15 18 29 26 32 28 11 18 30 -14 25 -38 -6 -41 18
-5 32 14 5 25 14 25 20 0 13 -31 13 -64 0 -31 -11 -32 -8 -9 31 18 30 35 39
30 17 -1 -7 5 -13 13 -13 10 0 14 8 12 24 -1 14 7 34 20 48 19 20 20 26 9 46
-10 18 -10 34 -2 62 7 26 7 53 0 83 -5 25 -7 52 -5 59 3 8 -1 16 -9 19 -10 4
-13 14 -9 28 4 17 0 22 -20 24 -15 1 -29 -5 -35 -15 -7 -14 -12 -15 -23 -5 -8
6 -18 9 -21 5 -4 -3 -7 -1 -7 5 0 18 -14 15 -45 -10z m-155 -88 c0 -5 -5 -10
-11 -10 -5 0 -7 5 -4 10 3 6 8 10 11 10 2 0 4 -4 4 -10z m142 -52 c-7 -7 -12
-8 -12 -2 0 6 3 14 7 17 3 4 9 5 12 2 2 -3 -1 -11 -7 -17z m-25 -60 c-3 -8 -6
-5 -6 6 -1 11 2 17 5 13 3 -3 4 -12 1 -19z m52 -39 c-25 -16 -32 -9 -13 12 12
13 20 16 22 9 3 -7 -2 -16 -9 -21z m-44 -19 c-3 -5 -13 -10 -21 -10 -8 0 -25
-7 -38 -16 -14 -8 -27 -11 -30 -6 -11 18 23 35 82 41 7 0 10 -3 7 -9z m25
-100 c-6 -11 -16 -20 -22 -20 -6 0 -3 9 7 20 10 11 20 20 22 20 2 0 -1 -9 -7
-20z"/>
<path d="M4450 4040 c-8 -5 -12 -12 -9 -15 4 -3 12 1 19 10 14 17 11 19 -10 5z"/>
<path d="M4685 4032 c-18 -10 -30 -23 -28 -33 2 -8 -5 -24 -17 -34 -18 -16
-28 -45 -15 -45 15 0 55 34 55 46 0 7 14 29 31 49 34 38 23 45 -26 17z"/>
<path d="M1893 4029 c-15 -5 -21 -14 -17 -23 3 -9 -1 -23 -11 -32 -9 -9 -14
-19 -11 -22 7 -7 36 18 36 31 0 5 7 15 16 22 24 17 14 34 -13 24z"/>
<path d="M4141 3999 c-20 -15 -44 -35 -55 -44 -96 -87 -132 -122 -201 -195
-244 -260 -355 -444 -437 -730 -8 -28 -13 -100 -12 -195 0 -163 15 -237 74
-378 l29 -68 -20 -46 c-23 -55 -23 -53 0 -53 23 0 68 51 77 86 8 33 -1 73 -37
168 -70 181 -76 377 -19 581 20 69 116 256 173 339 75 106 225 274 317 354 41
36 107 95 147 133 l71 67 -35 4 c-27 3 -44 -2 -72 -23z"/>
<path d="M4601 4004 c-6 -15 -9 -29 -6 -33 8 -7 35 28 35 46 0 22 -16 15 -29
-13z"/>
<path d="M4505 3990 c-3 -5 -2 -10 4 -10 5 0 13 5 16 10 3 6 2 10 -4 10 -5 0
-13 -4 -16 -10z"/>
<path d="M4537 3970 l-15 -30 24 18 c13 9 24 23 24 30 0 22 -18 13 -33 -18z"/>
<path d="M4753 3903 c-9 -16 -28 -40 -42 -55 -14 -16 -19 -28 -12 -28 8 0 10
-7 6 -20 -7 -23 7 -27 24 -7 8 10 7 17 -1 25 -8 8 -3 20 21 47 17 20 31 42 31
50 0 22 -7 18 -27 -12z"/>
<path d="M1790 3909 c0 -5 5 -7 10 -4 6 3 10 8 10 11 0 2 -4 4 -10 4 -5 0 -10
-5 -10 -11z"/>
<path d="M2745 3888 c-37 -60 -70 -115 -108 -181 l-37 -66 11 -72 c17 -108 4
-203 -38 -291 -19 -40 -43 -95 -53 -123 -10 -27 -41 -111 -70 -185 -81 -213
-80 -208 -58 -202 28 7 39 29 108 202 34 85 76 180 94 210 89 147 111 228 102
372 l-7 97 40 83 c37 78 63 188 44 188 -4 0 -17 -15 -28 -32z"/>
<path d="M1740 3860 c0 -5 4 -10 9 -10 6 0 13 5 16 10 3 6 -1 10 -9 10 -9 0
-16 -4 -16 -10z"/>
<path d="M4599 3828 c-23 -18 -57 -53 -74 -78 -42 -60 -71 -63 -169 -16 -140
68 -236 72 -301 14 -53 -45 -217 -350 -199 -367 4 -3 9 -1 11 5 9 26 162 251
184 271 47 43 104 53 153 28 15 -8 34 -15 42 -15 7 0 35 -13 62 -29 131 -77
166 -81 221 -22 32 35 81 104 81 116 0 5 6 16 13 24 8 9 21 35 30 59 21 53 7
56 -54 10z"/>
<path d="M4725 3749 c-4 -6 -5 -13 -2 -16 7 -7 27 6 27 18 0 12 -17 12 -25 -2z"/>
<path d="M4760 3711 c-19 -17 -41 -30 -47 -31 -15 0 -18 -30 -3 -30 6 0 13 7
16 15 4 8 14 15 24 15 20 0 54 34 48 50 -2 6 -19 -3 -38 -19z"/>
<path d="M4860 3710 c-9 -6 -10 -10 -3 -10 6 0 15 5 18 10 8 12 4 12 -15 0z"/>
<path d="M4680 3630 c0 -5 5 -10 10 -10 6 0 10 5 10 10 0 6 -4 10 -10 10 -5 0
-10 -4 -10 -10z"/>
<path d="M4740 3554 c0 -9 5 -14 12 -12 18 6 21 28 4 28 -9 0 -16 -7 -16 -16z"/>
<path d="M4835 3531 c-8 -14 10 -22 30 -15 13 5 14 8 3 15 -17 11 -26 11 -33
0z"/>
<path d="M5047 3492 c-9 -10 -17 -24 -17 -30 0 -6 -8 -17 -18 -24 -27 -19 -42
-51 -35 -76 4 -18 1 -22 -20 -22 -28 0 -57 -23 -57 -46 0 -18 14 -18 30 1 7 9
19 14 26 11 7 -3 16 -1 19 4 10 16 25 12 25 -6 0 -11 5 -14 16 -10 9 3 19 6
23 6 9 0 44 60 39 66 -3 2 -16 -5 -31 -16 -32 -25 -37 -25 -37 3 0 29 12 46
40 60 29 15 45 66 27 85 -11 10 -16 9 -30 -6z"/>
<path d="M4710 3485 c-7 -9 -8 -15 -2 -15 5 0 12 7 16 15 3 8 4 15 2 15 -2 0
-9 -7 -16 -15z"/>
<path d="M4892 3398 c-23 -36 -19 -54 5 -23 11 14 17 16 20 8 8 -23 18 -14 19
17 1 40 -19 39 -44 -2z"/>
<path d="M4822 3388 c-6 -14 -16 -29 -21 -33 -6 -3 -11 -11 -11 -17 0 -7 4 -7
13 1 8 6 17 8 20 4 10 -9 19 22 15 49 -4 23 -4 23 -16 -4z"/>
<path d="M4950 3271 c-7 -13 -7 -22 0 -26 13 -8 30 3 30 20 0 23 -18 27 -30 6z"/>
<path d="M5010 3252 c-13 -17 -28 -28 -35 -25 -13 4 -28 -26 -23 -45 2 -6 -6
-18 -17 -27 -18 -15 -19 -16 -1 -11 11 4 24 0 32 -11 15 -20 16 -17 18 41 1
37 26 48 26 12 0 -37 17 -32 34 9 13 29 13 39 1 61 l-13 26 -22 -30z"/>
<path d="M4877 3242 c-22 -24 -21 -32 3 -32 15 0 20 7 20 25 0 30 -2 30 -23 7z"/>
<path d="M4789 3210 c-18 -15 -20 -19 -8 -20 9 0 24 9 34 20 23 26 4 26 -26 0z"/>
<path d="M2647 3205 c-16 -15 -33 -73 -24 -81 3 -3 13 8 23 25 10 17 23 30 28
28 9 -3 150 -309 175 -379 6 -16 17 -28 26 -28 20 0 38 47 30 78 -15 60 -132
318 -156 343 -30 32 -78 39 -102 14z"/>
<path d="M4485 3133 c-14 -16 -33 -48 -42 -73 -9 -25 -27 -72 -41 -105 -37
-92 -37 -104 -1 -186 28 -63 33 -85 33 -149 -1 -92 -23 -136 -120 -236 -35
-37 -64 -68 -64 -70 0 -2 11 -4 25 -4 25 0 25 0 -15 -51 -22 -28 -40 -57 -40
-65 0 -9 -23 -40 -52 -70 -67 -72 -178 -128 -252 -128 -61 -1 -80 11 -155 102
-58 70 -112 102 -170 102 -34 0 -44 -6 -78 -44 -21 -24 -67 -64 -103 -88 -36
-25 -85 -59 -110 -76 -60 -41 -90 -48 -118 -25 -16 13 -52 104 -122 305 -55
159 -107 302 -115 318 -9 17 -30 40 -48 51 -29 18 -46 20 -202 17 -144 -3
-175 -6 -198 -21 -32 -21 -41 -75 -9 -58 28 15 367 14 379 -1 9 -12 69 -184
180 -521 52 -158 79 -197 136 -197 23 0 51 11 83 33 141 96 194 137 246 189
32 32 60 58 63 58 31 0 98 -61 153 -140 73 -103 164 -122 295 -62 110 50 170
113 210 217 24 63 43 85 76 85 58 0 96 -52 100 -135 2 -27 5 -53 7 -56 13 -22
-49 -183 -87 -224 -82 -91 -115 -143 -100 -158 20 -20 70 14 140 96 101 117
151 220 151 312 0 97 -55 201 -123 231 -23 10 -44 19 -46 21 -3 2 18 25 45 51
136 129 165 252 99 417 -31 78 -31 84 5 175 29 75 42 190 20 190 -5 0 -21 -12
-35 -27z"/>
<path d="M4860 3140 c0 -11 5 -20 10 -20 6 0 10 9 10 20 0 11 -4 20 -10 20 -5
0 -10 -9 -10 -20z"/>
<path d="M4974 3094 c-51 -23 -82 -49 -71 -60 3 -3 16 3 28 15 28 26 39 27 39
4 0 -14 4 -12 17 7 9 14 24 30 33 37 29 22 5 21 -46 -3z"/>
<path d="M4791 2974 c0 -11 3 -14 6 -6 3 7 2 16 -1 19 -3 4 -6 -2 -5 -13z"/>
<path d="M4894 2958 c-17 -34 -5 -37 44 -12 41 20 42 41 1 40 -23 -1 -35 -8
-45 -28z"/>
<path d="M4950 2865 c0 -8 2 -15 4 -15 2 0 6 7 10 15 3 8 1 15 -4 15 -6 0 -10
-7 -10 -15z"/>
<path d="M4840 2783 c0 -28 3 -34 10 -23 13 20 13 60 0 60 -5 0 -10 -17 -10
-37z"/>
<path d="M1456 2784 c-9 -24 -7 -28 9 -14 17 14 20 30 6 30 -5 0 -12 -7 -15
-16z"/>
<path d="M1575 2789 c-11 -17 1 -21 15 -4 8 9 8 15 2 15 -6 0 -14 -5 -17 -11z"/>
<path d="M4960 2784 c0 -8 5 -12 10 -9 6 3 10 10 10 16 0 5 -4 9 -10 9 -5 0
-10 -7 -10 -16z"/>
<path d="M1402 2767 c-14 -17 -4 -87 13 -87 8 0 12 15 11 44 -1 50 -8 63 -24
43z"/>
<path d="M2293 2740 c-17 -10 -37 -29 -43 -41 -15 -28 -6 -91 21 -138 20 -36
20 -36 0 -91 -38 -110 -60 -162 -97 -228 -80 -142 -77 -137 -54 -140 12 -2 32
4 45 12 50 33 158 250 187 378 9 40 8 58 -12 128 -20 66 -22 86 -13 110 13 35
9 36 -34 10z"/>
<path d="M4980 2719 c0 -5 5 -7 10 -4 6 3 10 8 10 11 0 2 -4 4 -10 4 -5 0 -10
-5 -10 -11z"/>
<path d="M1566 2704 c-4 -9 -4 -19 -2 -21 8 -8 26 8 26 23 0 19 -16 18 -24 -2z"/>
<path d="M4882 2687 c-23 -24 -28 -37 -14 -37 4 0 16 14 25 30 22 36 18 38
-11 7z"/>
<path d="M4806 2681 c-4 -7 -5 -15 -2 -18 9 -9 19 4 14 18 -4 11 -6 11 -12 0z"/>
<path d="M4835 2600 c-3 -5 -2 -10 4 -10 5 0 13 5 16 10 3 6 2 10 -4 10 -5 0
-13 -4 -16 -10z"/>
<path d="M4780 2585 c-8 -9 -8 -15 -2 -15 12 0 26 19 19 26 -2 2 -10 -2 -17
-11z"/>
<path d="M4882 2560 c-28 -37 -24 -48 8 -22 12 10 21 26 19 36 -3 15 -8 12
-27 -14z"/>
<path d="M1456 2531 c-4 -7 -5 -15 -2 -18 9 -9 19 4 14 18 -4 11 -6 11 -12 0z"/>
<path d="M1635 2516 c-10 -7 -16 -18 -14 -25 3 -9 11 -7 28 7 27 21 14 39 -14
18z"/>
<path d="M4832 2475 c-17 -38 -14 -43 8 -15 21 27 25 40 12 40 -5 0 -14 -11
-20 -25z"/>
<path d="M4943 2483 c-18 -7 -16 -23 2 -23 8 0 15 7 15 15 0 8 -1 15 -2 14 -2
0 -9 -3 -15 -6z"/>
<path d="M1520 2459 c0 -5 5 -7 10 -4 6 3 10 8 10 11 0 2 -4 4 -10 4 -5 0 -10
-5 -10 -11z"/>
<path d="M1527 2389 c-3 -13 -1 -19 6 -16 15 5 22 37 9 37 -5 0 -12 -9 -15
-21z"/>
<path d="M1645 2400 c-3 -5 -1 -10 4 -10 6 0 11 5 11 10 0 6 -2 10 -4 10 -3 0
-8 -4 -11 -10z"/>
<path d="M1790 2375 c-7 -9 -8 -15 -2 -15 5 0 12 7 16 15 3 8 4 15 2 15 -2 0
-9 -7 -16 -15z"/>
<path d="M4745 2380 c-3 -5 -1 -10 4 -10 6 0 11 5 11 10 0 6 -2 10 -4 10 -3 0
-8 -4 -11 -10z"/>
<path d="M1710 2360 c-8 -5 -12 -12 -9 -15 4 -3 12 1 19 10 14 17 11 19 -10 5z"/>
<path d="M1508 2313 c-28 -14 -35 -27 -20 -37 5 -3 22 8 37 24 31 32 26 36
-17 13z"/>
<path d="M1663 2318 c-24 -32 -24 -41 0 -19 15 14 27 26 27 28 0 8 -19 2 -27
-9z"/>
<path d="M1574 2305 c-8 -21 6 -41 17 -24 12 19 11 39 -1 39 -6 0 -13 -7 -16
-15z"/>
<path d="M4775 2260 c-10 -11 -13 -20 -8 -20 13 0 38 29 31 35 -3 3 -13 -4
-23 -15z"/>
<path d="M4843 2263 c-7 -3 -13 -14 -13 -26 0 -21 0 -21 16 1 17 25 16 32 -3
25z"/>
<path d="M1553 2234 c-3 -8 -1 -25 5 -37 l11 -22 0 22 c1 12 6 25 11 28 15 9
12 25 -5 25 -9 0 -18 -7 -22 -16z"/>
<path d="M1656 2195 c-3 -8 -1 -15 3 -15 5 0 11 7 15 15 3 8 1 15 -3 15 -5 0
-11 -7 -15 -15z"/>
<path d="M1581 2116 c-8 -10 -9 -16 -1 -21 13 -8 30 3 30 21 0 18 -14 18 -29
0z"/>
<path d="M4730 2095 c0 -8 2 -15 4 -15 2 0 6 7 10 15 3 8 1 15 -4 15 -6 0 -10
-7 -10 -15z"/>
<path d="M1806 1854 c-4 -9 -4 -19 -2 -22 10 -9 36 8 36 23 0 20 -26 19 -34
-1z"/>
<path d="M4235 1820 c-3 -5 -1 -10 4 -10 6 0 11 5 11 10 0 6 -2 10 -4 10 -3 0
-8 -4 -11 -10z"/>
<path d="M1775 1790 c-8 -16 -13 -30 -10 -30 16 0 45 22 45 35 0 28 -19 25
-35 -5z"/>
<path d="M1847 1764 c-4 -4 -7 -14 -7 -23 0 -11 3 -12 11 -4 6 6 10 16 7 23
-2 6 -7 8 -11 4z"/>
<path d="M1980 1760 c0 -5 5 -10 10 -10 6 0 10 5 10 10 0 6 -4 10 -10 10 -5 0
-10 -4 -10 -10z"/>
<path d="M1928 1753 c-10 -2 -18 -9 -18 -14 0 -14 26 -11 40 6 13 15 9 16 -22
8z"/>
<path d="M4382 1548 c-17 -17 -15 -38 3 -38 9 0 15 9 15 25 0 29 -1 30 -18 13z"/>
<path d="M1775 3700 c-10 -11 -14 -20 -9 -20 5 0 15 9 22 20 7 11 11 20 9 20
-2 0 -12 -9 -22 -20z"/>
<path d="M1716 3634 c-9 -22 -9 -22 21 -26 25 -3 27 -7 28 -52 0 -36 -4 -51
-17 -60 -24 -14 -23 -25 1 -19 13 3 21 -2 26 -16 15 -49 48 -9 39 48 -7 46 10
101 32 101 8 0 14 5 14 11 0 6 -8 9 -18 7 -10 -3 -27 1 -37 8 -26 19 -81 18
-89 -2z"/>
<path d="M1986 3643 c-3 -3 -6 -19 -6 -34 0 -18 -7 -32 -21 -39 -28 -16 -49
-6 -49 23 0 30 -10 40 -27 26 -19 -16 -18 -143 2 -159 21 -17 47 -4 45 22 -4
41 0 48 24 48 21 0 25 -5 28 -37 2 -27 8 -39 21 -41 14 -3 17 4 17 47 0 27 -5
53 -10 56 -6 4 -7 23 -4 44 6 36 -5 59 -20 44z"/>
<path d="M2050 3625 c-8 -22 -5 -131 6 -163 3 -9 20 -12 59 -10 63 3 75 20 21
29 -20 3 -42 11 -48 17 -16 16 8 42 39 42 14 0 21 4 18 10 -3 6 -17 7 -30 4
-29 -7 -45 18 -38 64 6 38 -13 44 -27 7z"/>
<path d="M2138 3618 c9 -9 15 -9 24 0 9 9 7 12 -12 12 -19 0 -21 -3 -12 -12z"/>
<path d="M1620 3575 c-7 -8 -8 -15 -2 -15 5 0 15 7 22 15 7 8 8 15 2 15 -5 0
-15 -7 -22 -15z"/>
<path d="M1611 3416 c-8 -9 -11 -19 -7 -23 9 -9 29 13 24 27 -2 8 -8 7 -17 -4z"/>
<path d="M1537 3373 c-13 -12 -7 -23 13 -23 11 0 20 7 20 15 0 15 -21 21 -33
8z"/>
<path d="M2060 3261 c0 -27 -2 -55 -5 -63 -9 -25 12 -40 60 -41 61 -2 70 17
13 29 l-43 9 -3 58 c-4 70 -22 77 -22 8z"/>
<path d="M1478 3113 c-10 -2 -18 -11 -18 -19 0 -12 4 -12 20 -4 11 6 20 15 20
20 0 6 -1 9 -2 9 -2 -1 -11 -3 -20 -6z"/>
<path d="M1565 3050 c-10 -11 -13 -20 -8 -20 13 0 38 29 31 35 -3 3 -13 -4
-23 -15z"/>
<path d="M1416 3044 c-5 -12 -2 -15 10 -10 8 3 18 6 20 6 2 0 4 5 4 10 0 16
-27 11 -34 -6z"/>
<path d="M1487 3043 c-4 -3 -7 -13 -7 -21 0 -12 3 -12 15 -2 8 7 15 16 15 21
0 11 -14 12 -23 2z"/>
<path d="M1560 2946 c0 -22 17 -28 24 -10 9 22 8 24 -9 24 -8 0 -15 -6 -15
-14z"/>
<path d="M2305 1280 c-3 -5 1 -10 9 -10 8 0 18 5 21 10 3 6 -1 10 -9 10 -8 0
-18 -4 -21 -10z"/>
<path d="M2960 1269 c0 -5 5 -7 10 -4 6 3 10 8 10 11 0 2 -4 4 -10 4 -5 0 -10
-5 -10 -11z"/>
<path d="M3355 1270 c-3 -5 -2 -10 4 -10 5 0 13 5 16 10 3 6 2 10 -4 10 -5 0
-13 -4 -16 -10z"/>
<path d="M3425 1260 c-3 -5 -1 -10 4 -10 6 0 11 5 11 10 0 6 -2 10 -4 10 -3 0
-8 -4 -11 -10z"/>
<path d="M3923 1263 c-14 -5 -18 -33 -5 -33 10 1 42 26 42 34 0 7 -19 7 -37
-1z"/>
<path d="M2996 1251 c-4 -7 -5 -15 -2 -18 9 -9 19 4 14 18 -4 11 -6 11 -12 0z"/>
<path d="M3643 1245 c-9 -25 4 -29 17 -6 7 15 7 21 0 21 -6 0 -13 -7 -17 -15z"/>
<path d="M2525 1240 c-3 -5 -2 -10 4 -10 5 0 13 5 16 10 3 6 2 10 -4 10 -5 0
-13 -4 -16 -10z"/>
<path d="M3126 1243 c-9 -9 -7 -33 3 -33 12 0 22 28 12 34 -5 3 -11 3 -15 -1z"/>
<path d="M3571 1216 c-14 -14 -22 -28 -19 -31 9 -9 51 31 47 44 -3 8 -13 3
-28 -13z"/>
<path d="M3330 1205 c-13 -14 -29 -25 -37 -25 -7 0 -13 -4 -13 -10 0 -5 5 -10
11 -10 14 0 79 50 79 61 0 16 -16 10 -40 -16z"/>
<path d="M2760 1205 c-18 -21 -3 -32 16 -13 10 9 12 18 6 22 -5 3 -15 -1 -22
-9z"/>
<path d="M2825 1210 c-3 -5 -1 -10 4 -10 6 0 11 5 11 10 0 6 -2 10 -4 10 -3 0
-8 -4 -11 -10z"/>
<path d="M2985 1209 c-10 -15 3 -25 16 -12 7 7 7 13 1 17 -6 3 -14 1 -17 -5z"/>
<path d="M3057 1189 c-24 -28 -34 -49 -23 -49 7 0 58 71 54 75 -2 3 -16 -9
-31 -26z"/>
<path d="M3420 1188 c-10 -17 -17 -35 -14 -40 8 -12 24 1 24 19 0 9 7 25 17
35 10 11 12 18 4 18 -6 0 -20 -14 -31 -32z"/>
<path d="M3500 1209 c0 -5 5 -7 10 -4 6 3 10 8 10 11 0 2 -4 4 -10 4 -5 0 -10
-5 -10 -11z"/>
<path d="M2870 1190 c-10 -18 -9 -19 15 -8 27 12 33 28 10 28 -8 0 -19 -9 -25
-20z"/>
<path d="M3847 1193 c-4 -3 -7 -11 -7 -17 0 -6 5 -5 12 2 6 6 9 14 7 17 -3 3
-9 2 -12 -2z"/>
<path d="M2690 1175 c-8 -9 -8 -15 -2 -15 12 0 26 19 19 26 -2 2 -10 -2 -17
-11z"/>
<path d="M3495 1180 c-3 -5 1 -10 9 -10 9 0 16 5 16 10 0 6 -4 10 -9 10 -6 0
-13 -4 -16 -10z"/>
<path d="M3116 1165 c-11 -8 -17 -17 -14 -20 3 -3 16 3 29 14 27 23 14 28 -15
6z"/>
<path d="M3240 1170 c0 -5 5 -10 10 -10 6 0 10 5 10 10 0 6 -4 10 -10 10 -5 0
-10 -4 -10 -10z"/>
<path d="M3445 1160 c-3 -5 -2 -10 4 -10 5 0 13 5 16 10 3 6 2 10 -4 10 -5 0
-13 -4 -16 -10z"/>
<path d="M3361 1142 c-14 -27 -14 -32 3 -32 17 0 27 23 16 40 -6 10 -11 8 -19
-8z"/>
<path d="M3212 1073 c-40 -43 -53 -73 -32 -73 5 0 14 9 20 21 9 16 17 19 40
14 28 -6 50 8 30 20 -16 10 -12 22 10 28 11 3 20 11 20 17 0 7 -7 10 -17 6 -9
-4 -19 -2 -22 3 -4 5 -25 -11 -49 -36z"/>
<path d="M3177 1103 c-4 -3 -7 -11 -7 -17 0 -6 5 -5 12 2 6 6 9 14 7 17 -3 3
-9 2 -12 -2z"/>
<path d="M3450 1099 c0 -5 5 -7 10 -4 6 3 10 8 10 11 0 2 -4 4 -10 4 -5 0 -10
-5 -10 -11z"/>
<path d="M3085 1082 c-16 -9 -32 -18 -34 -19 -1 -1 0 -6 3 -12 8 -12 62 14 70
34 7 19 -2 19 -39 -3z"/>
<path d="M3320 1068 c-28 -23 -20 -33 17 -22 15 4 34 8 42 9 28 1 22 23 -7 27
-19 3 -38 -2 -52 -14z"/>
</g>
</svg>
